  0
SECTION
  2
HEADER
  9
$ACADVER
  1
AC1014
  9
$ACADMAINTVER
 70
     9
  9
$DWGCODEPAGE
  3
ANSI_1252
  9
$INSBASE
 10
0.0
 20
0.0
 30
0.0
  9
$EXTMIN
 10
-410.9871245298122
 20
-51.00169406927341
 30
0.0
  9
$EXTMAX
 10
189.0128754701878
 20
348.9983059307266
 30
0.0
  9
$LIMMIN
 10
0.0
 20
0.0
  9
$LIMMAX
 10
12.0
 20
9.0
  9
$ORTHOMODE
 70
     1
  9
$REGENMODE
 70
     1
  9
$FILLMODE
 70
     1
  9
$QTEXTMODE
 70
     0
  9
$MIRRTEXT
 70
     1
  9
$DRAGMODE
 70
     2
  9
$LTSCALE
 40
1.0
  9
$OSMODE
 70
 16383
  9
$ATTMODE
 70
     1
  9
$TEXTSIZE
 40
0.2
  9
$TRACEWID
 40
0.05
  9
$TEXTSTYLE
  7
STANDARD
  9
$CLAYER
  8
0
  9
$CELTYPE
  6
BYBLOCK
  9
$CECOLOR
 62
   256
  9
$CELTSCALE
 40
1.0
  9
$DELOBJ
 70
     1
  9
$DISPSILH
 70
     0
  9
$DIMSCALE
 40
1.0
  9
$DIMASZ
 40
0.18
  9
$DIMEXO
 40
0.0625
  9
$DIMDLI
 40
0.38
  9
$DIMRND
 40
0.0
  9
$DIMDLE
 40
0.0
  9
$DIMEXE
 40
0.18
  9
$DIMTP
 40
0.0
  9
$DIMTM
 40
0.0
  9
$DIMTXT
 40
0.18
  9
$DIMCEN
 40
0.09
  9
$DIMTSZ
 40
0.0
  9
$DIMTOL
 70
     0
  9
$DIMLIM
 70
     0
  9
$DIMTIH
 70
     1
  9
$DIMTOH
 70
     1
  9
$DIMSE1
 70
     0
  9
$DIMSE2
 70
     0
  9
$DIMTAD
 70
     0
  9
$DIMZIN
 70
     0
  9
$DIMBLK
  1

  9
$DIMASO
 70
     1
  9
$DIMSHO
 70
     1
  9
$DIMPOST
  1

  9
$DIMAPOST
  1

  9
$DIMALT
 70
     0
  9
$DIMALTD
 70
     2
  9
$DIMALTF
 40
25.4
  9
$DIMLFAC
 40
1.0
  9
$DIMTOFL
 70
     0
  9
$DIMTVP
 40
0.0
  9
$DIMTIX
 70
     0
  9
$DIMSOXD
 70
     0
  9
$DIMSAH
 70
     0
  9
$DIMBLK1
  1

  9
$DIMBLK2
  1

  9
$DIMSTYLE
  2
STANDARD
  9
$DIMCLRD
 70
     0
  9
$DIMCLRE
 70
     0
  9
$DIMCLRT
 70
     0
  9
$DIMTFAC
 40
1.0
  9
$DIMGAP
 40
0.09
  9
$DIMJUST
 70
     0
  9
$DIMSD1
 70
     0
  9
$DIMSD2
 70
     0
  9
$DIMTOLJ
 70
     1
  9
$DIMTZIN
 70
     0
  9
$DIMALTZ
 70
     0
  9
$DIMALTTZ
 70
     0
  9
$DIMFIT
 70
     5
  9
$DIMUPT
 70
     0
  9
$DIMUNIT
 70
     2
  9
$DIMDEC
 70
     4
  9
$DIMTDEC
 70
     4
  9
$DIMALTU
 70
     2
  9
$DIMALTTD
 70
     2
  9
$DIMTXSTY
  7
STANDARD
  9
$DIMAUNIT
 70
     0
  9
$LUNITS
 70
     2
  9
$LUPREC
 70
     4
  9
$SKETCHINC
 40
0.1
  9
$FILLETRAD
 40
0.5
  9
$AUNITS
 70
     0
  9
$AUPREC
 70
     0
  9
$MENU
  1
.
  9
$ELEVATION
 40
0.0
  9
$PELEVATION
 40
0.0
  9
$THICKNESS
 40
0.0
  9
$LIMCHECK
 70
     0
  9
$CHAMFERA
 40
0.0
  9
$CHAMFERB
 40
0.0
  9
$CHAMFERC
 40
0.0
  9
$CHAMFERD
 40
0.0
  9
$SKPOLY
 70
     0
  9
$TDCREATE
 40
2459953.769412871
  9
$TDUPDATE
 40
2459983.454061342
  9
$TDINDWG
 40
1.9551584838
  9
$TDUSRTIMER
 40
0.0050202083
  9
$USRTIMER
 70
     1
  9
$ANGBASE
 50
0.0
  9
$ANGDIR
 70
     0
  9
$PDMODE
 70
     0
  9
$PDSIZE
 40
0.0
  9
$PLINEWID
 40
0.0
  9
$COORDS
 70
     1
  9
$SPLFRAME
 70
     0
  9
$SPLINETYPE
 70
     6
  9
$SPLINESEGS
 70
     8
  9
$ATTDIA
 70
     0
  9
$ATTREQ
 70
     1
  9
$HANDLING
 70
     1
  9
$HANDSEED
  5
63E
  9
$SURFTAB1
 70
     6
  9
$SURFTAB2
 70
     6
  9
$SURFTYPE
 70
     6
  9
$SURFU
 70
     6
  9
$SURFV
 70
     6
  9
$UCSNAME
  2

  9
$UCSORG
 10
0.0
 20
0.0
 30
0.0
  9
$UCSXDIR
 10
1.0
 20
0.0
 30
0.0
  9
$UCSYDIR
 10
0.0
 20
1.0
 30
0.0
  9
$PUCSNAME
  2

  9
$PUCSORG
 10
0.0
 20
0.0
 30
0.0
  9
$PUCSXDIR
 10
1.0
 20
0.0
 30
0.0
  9
$PUCSYDIR
 10
0.0
 20
1.0
 30
0.0
  9
$USERI1
 70
     0
  9
$USERI2
 70
     0
  9
$USERI3
 70
     0
  9
$USERI4
 70
     0
  9
$USERI5
 70
     0
  9
$USERR1
 40
0.0
  9
$USERR2
 40
0.0
  9
$USERR3
 40
0.0
  9
$USERR4
 40
0.0
  9
$USERR5
 40
0.0
  9
$WORLDVIEW
 70
     1
  9
$SHADEDGE
 70
     3
  9
$SHADEDIF
 70
    70
  9
$TILEMODE
 70
     1
  9
$MAXACTVP
 70
    64
  9
$PINSBASE
 10
0.0
 20
0.0
 30
0.0
  9
$PLIMCHECK
 70
     0
  9
$PEXTMIN
 10
1.000000000000000E+20
 20
1.000000000000000E+20
 30
1.000000000000000E+20
  9
$PEXTMAX
 10
-1.000000000000000E+20
 20
-1.000000000000000E+20
 30
-1.000000000000000E+20
  9
$PLIMMIN
 10
0.0
 20
0.0
  9
$PLIMMAX
 10
0.0
 20
0.0
  9
$UNITMODE
 70
     0
  9
$VISRETAIN
 70
     1
  9
$PLINEGEN
 70
     0
  9
$PSLTSCALE
 70
     1
  9
$TREEDEPTH
 70
  3020
  9
$PICKSTYLE
 70
     1
  9
$CMLSTYLE
  2
STANDARD
  9
$CMLJUST
 70
     0
  9
$CMLSCALE
 40
1.0
  9
$PROXYGRAPHICS
 70
     1
  9
$MEASUREMENT
 70
     0
  0
ENDSEC
  0
SECTION
  2
CLASSES
  0
CLASS
  1
ACDBDICTIONARYWDFLT
  2
AcDbDictionaryWithDefault
  3
ObjectDBX Classes
 90
        0
280
     0
281
     0
  0
CLASS
  1
SCALE
  2
AcDbScale
  3
ObjectDBX Classes
 90
     1153
280
     0
281
     0
  0
CLASS
  1
VISUALSTYLE
  2
AcDbVisualStyle
  3
ObjectDBX Classes
 90
     4095
280
     0
281
     0
  0
CLASS
  1
MATERIAL
  2
AcDbMaterial
  3
ObjectDBX Classes
 90
     1153
280
     0
281
     0
  0
CLASS
  1
TABLESTYLE
  2
AcDbTableStyle
  3
ObjectDBX Classes
 90
     4095
280
     0
281
     0
  0
CLASS
  1
MLEADERSTYLE
  2
AcDbMLeaderStyle
  3
ACDB_MLEADERSTYLE_CLASS
 90
     4095
280
     0
281
     0
  0
CLASS
  1
DICTIONARYVAR
  2
AcDbDictionaryVar
  3
ObjectDBX Classes
 90
        0
280
     0
281
     0
  0
CLASS
  1
SUN
  2
AcDbSun
  3
SCENEOE
 90
     1153
280
     0
281
     0
  0
CLASS
  1
XRECORD
  2
AcDbXrecord
  3
ObjectDBX Classes
 90
        0
280
     0
281
     0
  0
CLASS
  1
LWPOLYLINE
  2
AcDbPolyline
  3
ObjectDBX Classes
 90
        0
280
     0
281
     1
  0
CLASS
  1
HATCH
  2
AcDbHatch
  3
ObjectDBX Classes
 90
        0
280
     0
281
     1
  0
CLASS
  1
CELLSTYLEMAP
  2
AcDbCellStyleMap
  3
ObjectDBX Classes
 90
     1152
280
     0
281
     0
  0
ENDSEC
  0
SECTION
  2
TABLES
  0
TABLE
  2
VPORT
  5
8
330
0
100
AcDbSymbolTable
 70
     1
  0
VPORT
  5
22
330
8
100
AcDbSymbolTableRecord
100
AcDbViewportTableRecord
  2
*ACTIVE
 70
     0
 10
0.0
 20
0.0
 11
1.0
 21
1.0
 12
-54.22323164478766
 22
92.69483292644409
 13
0.0
 23
0.0
 14
0.5
 24
0.5
 15
0.5
 25
0.5
 16
0.0
 26
0.0
 36
1.0
 17
0.0
 27
0.0
 37
0.0
 40
261.1199999999999
 41
2.591489361702128
 42
50.0
 43
0.0
 44
0.0
 50
0.0
 51
0.0
 71
    16
 72
   100
 73
     1
 74
     3
 75
     0
 76
     0
 77
     0
 78
     0
  0
ENDTAB
  0
TABLE
  2
LTYPE
  5
5
330
0
100
AcDbSymbolTable
 70
     1
  0
LTYPE
  5
14
330
5
100
AcDbSymbolTableRecord
100
AcDbLinetypeTableRecord
  2
BYBLOCK
 70
     0
  3

 72
    65
 73
     0
 40
0.0
  0
LTYPE
  5
15
330
5
100
AcDbSymbolTableRecord
100
AcDbLinetypeTableRecord
  2
BYLAYER
 70
     0
  3

 72
    65
 73
     0
 40
0.0
  0
LTYPE
  5
16
330
5
100
AcDbSymbolTableRecord
100
AcDbLinetypeTableRecord
  2
CONTINUOUS
 70
     0
  3
______
 72
    65
 73
     0
 40
0.0
  0
ENDTAB
  0
TABLE
  2
LAYER
  5
2
102
{ACAD_XDICTIONARY
360
59B
102
}
330
0
100
AcDbSymbolTable
 70
    15
  0
LAYER
  5
10
330
2
100
AcDbSymbolTableRecord
100
AcDbLayerTableRecord
  2
0
 70
     0
 62
     7
  6
CONTINUOUS
  0
LAYER
  5
4E3
330
2
100
AcDbSymbolTableRecord
100
AcDbLayerTableRecord
  2
BOTTOM_LABELLAYER
 70
     0
 62
     7
  6
CONTINUOUS
  0
LAYER
  5
4E4
330
2
100
AcDbSymbolTableRecord
100
AcDbLayerTableRecord
  2
BOTTOM_OUTSIDECUTPATH
 70
     0
 62
     7
  6
CONTINUOUS
  0
LAYER
  5
4E5
330
2
100
AcDbSymbolTableRecord
100
AcDbLayerTableRecord
  2
RIGHT_LABELLAYER
 70
     0
 62
     7
  6
CONTINUOUS
  0
LAYER
  5
4E6
330
2
100
AcDbSymbolTableRecord
100
AcDbLayerTableRecord
  2
RIGHT_OUTSIDECUTPATH
 70
     0
 62
     7
  6
CONTINUOUS
  0
LAYER
  5
4E7
330
2
100
AcDbSymbolTableRecord
100
AcDbLayerTableRecord
  2
BACK_LABELLAYER
 70
     0
 62
     7
  6
CONTINUOUS
  0
LAYER
  5
4E8
330
2
100
AcDbSymbolTableRecord
100
AcDbLayerTableRecord
  2
BACK_OUTSIDECUTPATH
 70
     0
 62
     7
  6
CONTINUOUS
  0
LAYER
  5
4E9
330
2
100
AcDbSymbolTableRecord
100
AcDbLayerTableRecord
  2
TOP_LABELLAYER
 70
     0
 62
     7
  6
CONTINUOUS
  0
LAYER
  5
4EA
330
2
100
AcDbSymbolTableRecord
100
AcDbLayerTableRecord
  2
TOP_OUTSIDECUTPATH
 70
     0
 62
     7
  6
CONTINUOUS
  0
LAYER
  5
4EB
330
2
100
AcDbSymbolTableRecord
100
AcDbLayerTableRecord
  2
LEFT_LABELLAYER
 70
     0
 62
     7
  6
CONTINUOUS
  0
LAYER
  5
4EC
330
2
100
AcDbSymbolTableRecord
100
AcDbLayerTableRecord
  2
LEFT_OUTSIDECUTPATH
 70
     0
 62
     7
  6
CONTINUOUS
  0
LAYER
  5
4ED
330
2
100
AcDbSymbolTableRecord
100
AcDbLayerTableRecord
  2
FRONT_LABELLAYER
 70
     0
 62
     7
  6
CONTINUOUS
  0
LAYER
  5
4EE
330
2
100
AcDbSymbolTableRecord
100
AcDbLayerTableRecord
  2
FRONT_OUTSIDECUTPATH
 70
     0
 62
     7
  6
CONTINUOUS
  0
LAYER
  5
59E
330
2
100
AcDbSymbolTableRecord
100
AcDbLayerTableRecord
  2
CUT
 70
     0
 62
     1
  6
CONTINUOUS
1001
ACAECLAYERSTANDARD
1000

1000

  0
LAYER
  5
5A3
330
2
100
AcDbSymbolTableRecord
100
AcDbLayerTableRecord
  2
ENGRAVE
 70
     0
 62
     5
  6
CONTINUOUS
1001
ACAECLAYERSTANDARD
1000

1000

  0
ENDTAB
  0
TABLE
  2
STYLE
  5
3
330
0
100
AcDbSymbolTable
 70
     1
  0
STYLE
  5
11
330
3
100
AcDbSymbolTableRecord
100
AcDbTextStyleTableRecord
  2
STANDARD
 70
     0
 40
0.0
 41
1.0
 50
0.0
 71
     0
 42
0.2
  3
txt
  4

  0
ENDTAB
  0
TABLE
  2
VIEW
  5
6
330
0
100
AcDbSymbolTable
 70
     0
  0
ENDTAB
  0
TABLE
  2
UCS
  5
7
330
0
100
AcDbSymbolTable
 70
     0
  0
ENDTAB
  0
TABLE
  2
APPID
  5
9
330
0
100
AcDbSymbolTable
 70
     2
  0
APPID
  5
12
330
9
100
AcDbSymbolTableRecord
100
AcDbRegAppTableRecord
  2
ACAD
 70
     0
  0
APPID
  5
59F
330
9
100
AcDbSymbolTableRecord
100
AcDbRegAppTableRecord
  2
ACAECLAYERSTANDARD
 70
     0
  0
ENDTAB
  0
TABLE
  2
DIMSTYLE
  5
A
330
0
100
AcDbSymbolTable
 70
     1
  0
DIMSTYLE
105
21
330
A
100
AcDbSymbolTableRecord
100
AcDbDimStyleTableRecord
  2
STANDARD
 70
     0
  3

  4

  5

  6

  7

 40
1.0
 41
0.18
 42
0.0625
 43
0.38
 44
0.18
 45
0.0
 46
0.0
 47
0.0
 48
0.0
140
0.18
141
0.09
142
0.0
143
25.4
144
1.0
145
0.0
146
1.0
147
0.09
 71
     0
 72
     0
 73
     1
 74
     1
 75
     0
 76
     0
 77
     0
 78
     0
170
     0
171
     2
172
     0
173
     0
174
     0
175
     0
176
     0
177
     0
178
     0
270
     2
271
     4
272
     4
273
     2
274
     2
340
11
275
     0
280
     0
281
     0
282
     0
283
     1
284
     0
285
     0
286
     0
287
     3
288
     0
  0
ENDTAB
  0
TABLE
  2
BLOCK_RECORD
  5
1
330
0
100
AcDbSymbolTable
 70
     0
  0
BLOCK_RECORD
  5
1D
330
1
100
AcDbSymbolTableRecord
100
AcDbBlockTableRecord
  2
*MODEL_SPACE
  0
BLOCK_RECORD
  5
1B
330
1
100
AcDbSymbolTableRecord
100
AcDbBlockTableRecord
  2
*PAPER_SPACE
  0
ENDTAB
  0
ENDSEC
  0
SECTION
  2
BLOCKS
  0
BLOCK
  5
511
330
1D
100
AcDbEntity
  8
0
100
AcDbBlockBegin
  2
*MODEL_SPACE
 70
     0
 10
0.0
 20
0.0
 30
0.0
  3
*MODEL_SPACE
  1

  0
ENDBLK
  5
512
330
1D
100
AcDbEntity
  8
0
100
AcDbBlockEnd
  0
BLOCK
  5
513
330
1B
100
AcDbEntity
 67
     1
  8
0
100
AcDbBlockBegin
  2
*PAPER_SPACE
 70
     0
 10
0.0
 20
0.0
 30
0.0
  3
*PAPER_SPACE
  1

  0
ENDBLK
  5
514
330
1B
100
AcDbEntity
 67
     1
  8
0
100
AcDbBlockEnd
  0
ENDSEC
  0
SECTION
  2
ENTITIES
  0
LINE
  5
23
330
1D
100
AcDbEntity
  8
CUT
100
AcDbLine
 10
-160.3707234042553
 20
2.999999999999909
 30
0.0
 11
-125.6007234042553
 21
2.99999999999993
 31
0.0
  0
LINE
  5
24
330
1D
100
AcDbEntity
  8
CUT
100
AcDbLine
 10
-125.6007234042553
 20
2.99999999999993
 30
0.0
 11
-125.6007234042553
 21
5.999999999999931
 31
0.0
  0
LINE
  5
25
330
1D
100
AcDbEntity
  8
CUT
100
AcDbLine
 10
-125.6007234042553
 20
5.999999999999931
 30
0.0
 11
-98.78072340425533
 21
5.999999999999947
 31
0.0
  0
LINE
  5
26
330
1D
100
AcDbEntity
  8
CUT
100
AcDbLine
 10
-98.78072340425533
 20
5.999999999999947
 30
0.0
 11
-98.78072340425533
 21
2.999999999999946
 31
0.0
  0
LINE
  5
27
330
1D
100
AcDbEntity
  8
CUT
100
AcDbLine
 10
-98.78072340425533
 20
2.999999999999946
 30
0.0
 11
-71.96072340425533
 21
2.999999999999963
 31
0.0
  0
LINE
  5
28
330
1D
100
AcDbEntity
  8
CUT
100
AcDbLine
 10
-71.96072340425533
 20
2.999999999999963
 30
0.0
 11
-71.96072340425533
 21
5.999999999999963
 31
0.0
  0
LINE
  5
29
330
1D
100
AcDbEntity
  8
CUT
100
AcDbLine
 10
-71.96072340425533
 20
5.999999999999963
 30
0.0
 11
-45.14072340425533
 21
5.999999999999979
 31
0.0
  0
LINE
  5
2A
330
1D
100
AcDbEntity
  8
CUT
100
AcDbLine
 10
-45.14072340425533
 20
5.999999999999979
 30
0.0
 11
-45.14072340425533
 21
2.999999999999979
 31
0.0
  0
LINE
  5
2B
330
1D
100
AcDbEntity
  8
CUT
100
AcDbLine
 10
-45.14072340425533
 20
2.999999999999979
 30
0.0
 11
-18.32072340425533
 21
2.999999999999995
 31
0.0
  0
LINE
  5
2C
330
1D
100
AcDbEntity
  8
CUT
100
AcDbLine
 10
-18.32072340425533
 20
2.999999999999995
 30
0.0
 11
-10.37072340425533
 21
3.0
 31
0.0
  0
LINE
  5
2D
330
1D
100
AcDbEntity
  8
CUT
100
AcDbLine
 10
-10.37072340425533
 20
3.0
 30
0.0
 11
-10.37072340425534
 21
27.77
 31
0.0
  0
LINE
  5
2E
330
1D
100
AcDbEntity
  8
CUT
100
AcDbLine
 10
-10.37072340425534
 20
27.77
 30
0.0
 11
-13.37072340425534
 21
27.77
 31
0.0
  0
LINE
  5
2F
330
1D
100
AcDbEntity
  8
CUT
100
AcDbLine
 10
-13.37072340425534
 20
27.77
 30
0.0
 11
-13.37072340425536
 21
54.59
 31
0.0
  0
LINE
  5
30
330
1D
100
AcDbEntity
  8
CUT
100
AcDbLine
 10
-13.37072340425536
 20
54.59
 30
0.0
 11
-10.37072340425536
 21
54.59
 31
0.0
  0
LINE
  5
31
330
1D
100
AcDbEntity
  8
CUT
100
AcDbLine
 10
-10.37072340425536
 20
54.59
 30
0.0
 11
-10.37072340425538
 21
81.41
 31
0.0
  0
LINE
  5
32
330
1D
100
AcDbEntity
  8
CUT
100
AcDbLine
 10
-10.37072340425538
 20
81.41
 30
0.0
 11
-13.37072340425538
 21
81.41
 31
0.0
  0
LINE
  5
33
330
1D
100
AcDbEntity
  8
CUT
100
AcDbLine
 10
-13.37072340425538
 20
81.41
 30
0.0
 11
-13.37072340425539
 21
108.23
 31
0.0
  0
LINE
  5
34
330
1D
100
AcDbEntity
  8
CUT
100
AcDbLine
 10
-13.37072340425539
 20
108.23
 30
0.0
 11
-10.37072340425539
 21
108.23
 31
0.0
  0
LINE
  5
35
330
1D
100
AcDbEntity
  8
CUT
100
AcDbLine
 10
-10.37072340425539
 20
108.23
 30
0.0
 11
-10.37072340425541
 21
133.0
 31
0.0
  0
LINE
  5
36
330
1D
100
AcDbEntity
  8
CUT
100
AcDbLine
 10
-10.37072340425541
 20
133.0
 30
0.0
 11
-45.14072340425541
 21
133.0
 31
0.0
  0
LINE
  5
37
330
1D
100
AcDbEntity
  8
CUT
100
AcDbLine
 10
-45.14072340425541
 20
133.0
 30
0.0
 11
-45.14072340425541
 21
130.0
 31
0.0
  0
LINE
  5
38
330
1D
100
AcDbEntity
  8
CUT
100
AcDbLine
 10
-45.14072340425541
 20
130.0
 30
0.0
 11
-71.9607234042554
 21
130.0
 31
0.0
  0
LINE
  5
39
330
1D
100
AcDbEntity
  8
CUT
100
AcDbLine
 10
-71.9607234042554
 20
130.0
 30
0.0
 11
-71.96072340425542
 21
133.0
 31
0.0
  0
LINE
  5
3A
330
1D
100
AcDbEntity
  8
CUT
100
AcDbLine
 10
-71.96072340425542
 20
133.0
 30
0.0
 11
-98.78072340425541
 21
132.9999999999999
 31
0.0
  0
LINE
  5
3B
330
1D
100
AcDbEntity
  8
CUT
100
AcDbLine
 10
-98.78072340425541
 20
132.9999999999999
 30
0.0
 11
-98.7807234042554
 21
129.9999999999999
 31
0.0
  0
LINE
  5
3C
330
1D
100
AcDbEntity
  8
CUT
100
AcDbLine
 10
-98.7807234042554
 20
129.9999999999999
 30
0.0
 11
-125.6007234042554
 21
129.9999999999999
 31
0.0
  0
LINE
  5
3D
330
1D
100
AcDbEntity
  8
CUT
100
AcDbLine
 10
-125.6007234042554
 20
129.9999999999999
 30
0.0
 11
-125.6007234042554
 21
132.9999999999999
 31
0.0
  0
LINE
  5
3E
330
1D
100
AcDbEntity
  8
CUT
100
AcDbLine
 10
-125.6007234042554
 20
132.9999999999999
 30
0.0
 11
-152.4207234042554
 21
132.9999999999999
 31
0.0
  0
LINE
  5
3F
330
1D
100
AcDbEntity
  8
CUT
100
AcDbLine
 10
-152.4207234042554
 20
132.9999999999999
 30
0.0
 11
-160.3707234042554
 21
132.9999999999999
 31
0.0
  0
LINE
  5
40
330
1D
100
AcDbEntity
  8
CUT
100
AcDbLine
 10
-160.3707234042554
 20
132.9999999999999
 30
0.0
 11
-160.3707234042554
 21
108.2299999999999
 31
0.0
  0
LINE
  5
41
330
1D
100
AcDbEntity
  8
CUT
100
AcDbLine
 10
-160.3707234042554
 20
108.2299999999999
 30
0.0
 11
-157.3707234042554
 21
108.2299999999999
 31
0.0
  0
LINE
  5
42
330
1D
100
AcDbEntity
  8
CUT
100
AcDbLine
 10
-157.3707234042554
 20
108.2299999999999
 30
0.0
 11
-157.3707234042554
 21
81.40999999999991
 31
0.0
  0
LINE
  5
43
330
1D
100
AcDbEntity
  8
CUT
100
AcDbLine
 10
-157.3707234042554
 20
81.40999999999991
 30
0.0
 11
-160.3707234042554
 21
81.4099999999999
 31
0.0
  0
LINE
  5
44
330
1D
100
AcDbEntity
  8
CUT
100
AcDbLine
 10
-160.3707234042554
 20
81.4099999999999
 30
0.0
 11
-160.3707234042554
 21
54.58999999999991
 31
0.0
  0
LINE
  5
45
330
1D
100
AcDbEntity
  8
CUT
100
AcDbLine
 10
-160.3707234042554
 20
54.58999999999991
 30
0.0
 11
-157.3707234042554
 21
54.58999999999991
 31
0.0
  0
LINE
  5
46
330
1D
100
AcDbEntity
  8
CUT
100
AcDbLine
 10
-157.3707234042554
 20
54.58999999999991
 30
0.0
 11
-157.3707234042554
 21
27.76999999999991
 31
0.0
  0
LINE
  5
47
330
1D
100
AcDbEntity
  8
CUT
100
AcDbLine
 10
-157.3707234042554
 20
27.76999999999991
 30
0.0
 11
-160.3707234042554
 21
27.76999999999991
 31
0.0
  0
LINE
  5
48
330
1D
100
AcDbEntity
  8
CUT
100
AcDbLine
 10
-160.3707234042554
 20
27.76999999999991
 30
0.0
 11
-160.3707234042553
 21
2.999999999999909
 31
0.0
  0
LINE
  5
E2
330
1D
100
AcDbEntity
  8
CUT
100
AcDbLine
 10
-160.3707234042554
 20
150.8292924814098
 30
0.0
 11
-125.6007234042554
 21
150.8292924814098
 31
0.0
  0
LINE
  5
E3
330
1D
100
AcDbEntity
  8
CUT
100
AcDbLine
 10
-125.6007234042554
 20
150.8292924814098
 30
0.0
 11
-125.6007234042554
 21
147.8292924814098
 31
0.0
  0
LINE
  5
E4
330
1D
100
AcDbEntity
  8
CUT
100
AcDbLine
 10
-125.6007234042554
 20
147.8292924814098
 30
0.0
 11
-98.78072340425535
 21
147.8292924814098
 31
0.0
  0
LINE
  5
E5
330
1D
100
AcDbEntity
  8
CUT
100
AcDbLine
 10
-98.78072340425535
 20
147.8292924814098
 30
0.0
 11
-98.78072340425535
 21
150.8292924814098
 31
0.0
  0
LINE
  5
E6
330
1D
100
AcDbEntity
  8
CUT
100
AcDbLine
 10
-98.78072340425535
 20
150.8292924814098
 30
0.0
 11
-71.96072340425536
 21
150.8292924814099
 31
0.0
  0
LINE
  5
E7
330
1D
100
AcDbEntity
  8
CUT
100
AcDbLine
 10
-71.96072340425536
 20
150.8292924814099
 30
0.0
 11
-71.96072340425536
 21
147.8292924814099
 31
0.0
  0
LINE
  5
E8
330
1D
100
AcDbEntity
  8
CUT
100
AcDbLine
 10
-71.96072340425536
 20
147.8292924814099
 30
0.0
 11
-45.14072340425535
 21
147.8292924814099
 31
0.0
  0
LINE
  5
E9
330
1D
100
AcDbEntity
  8
CUT
100
AcDbLine
 10
-45.14072340425535
 20
147.8292924814099
 30
0.0
 11
-45.14072340425536
 21
150.8292924814099
 31
0.0
  0
LINE
  5
EA
330
1D
100
AcDbEntity
  8
CUT
100
AcDbLine
 10
-45.14072340425536
 20
150.8292924814099
 30
0.0
 11
-18.32072340425535
 21
150.8292924814099
 31
0.0
  0
LINE
  5
EB
330
1D
100
AcDbEntity
  8
CUT
100
AcDbLine
 10
-18.32072340425535
 20
150.8292924814099
 30
0.0
 11
-10.37072340425535
 21
150.8292924814099
 31
0.0
  0
LINE
  5
EC
330
1D
100
AcDbEntity
  8
CUT
100
AcDbLine
 10
-10.37072340425535
 20
150.8292924814099
 30
0.0
 11
-10.37072340425536
 21
161.9192924814099
 31
0.0
  0
LINE
  5
ED
330
1D
100
AcDbEntity
  8
CUT
100
AcDbLine
 10
-10.37072340425536
 20
161.9192924814099
 30
0.0
 11
-13.37072340425536
 21
161.9192924814099
 31
0.0
  0
LINE
  5
EE
330
1D
100
AcDbEntity
  8
CUT
100
AcDbLine
 10
-13.37072340425536
 20
161.9192924814099
 30
0.0
 11
-13.37072340425538
 21
188.7392924814099
 31
0.0
  0
LINE
  5
EF
330
1D
100
AcDbEntity
  8
CUT
100
AcDbLine
 10
-13.37072340425538
 20
188.7392924814099
 30
0.0
 11
-10.37072340425538
 21
188.7392924814099
 31
0.0
  0
LINE
  5
F0
330
1D
100
AcDbEntity
  8
CUT
100
AcDbLine
 10
-10.37072340425538
 20
188.7392924814099
 30
0.0
 11
-10.37072340425538
 21
199.8292924814099
 31
0.0
  0
LINE
  5
F1
330
1D
100
AcDbEntity
  8
CUT
100
AcDbLine
 10
-10.37072340425538
 20
199.8292924814099
 30
0.0
 11
-45.14072340425539
 21
199.8292924814099
 31
0.0
  0
LINE
  5
F2
330
1D
100
AcDbEntity
  8
CUT
100
AcDbLine
 10
-45.14072340425539
 20
199.8292924814099
 30
0.0
 11
-45.14072340425539
 21
202.8292924814099
 31
0.0
  0
LINE
  5
F3
330
1D
100
AcDbEntity
  8
CUT
100
AcDbLine
 10
-45.14072340425539
 20
202.8292924814099
 30
0.0
 11
-71.96072340425539
 21
202.8292924814099
 31
0.0
  0
LINE
  5
F4
330
1D
100
AcDbEntity
  8
CUT
100
AcDbLine
 10
-71.96072340425539
 20
202.8292924814099
 30
0.0
 11
-71.96072340425539
 21
199.8292924814099
 31
0.0
  0
LINE
  5
F5
330
1D
100
AcDbEntity
  8
CUT
100
AcDbLine
 10
-71.96072340425539
 20
199.8292924814099
 30
0.0
 11
-98.78072340425538
 21
199.8292924814098
 31
0.0
  0
LINE
  5
F6
330
1D
100
AcDbEntity
  8
CUT
100
AcDbLine
 10
-98.78072340425538
 20
199.8292924814098
 30
0.0
 11
-98.78072340425538
 21
202.8292924814098
 31
0.0
  0
LINE
  5
F7
330
1D
100
AcDbEntity
  8
CUT
100
AcDbLine
 10
-98.78072340425538
 20
202.8292924814098
 30
0.0
 11
-125.6007234042554
 21
202.8292924814098
 31
0.0
  0
LINE
  5
F8
330
1D
100
AcDbEntity
  8
CUT
100
AcDbLine
 10
-125.6007234042554
 20
202.8292924814098
 30
0.0
 11
-125.6007234042554
 21
199.8292924814098
 31
0.0
  0
LINE
  5
F9
330
1D
100
AcDbEntity
  8
CUT
100
AcDbLine
 10
-125.6007234042554
 20
199.8292924814098
 30
0.0
 11
-152.4207234042554
 21
199.8292924814098
 31
0.0
  0
LINE
  5
FA
330
1D
100
AcDbEntity
  8
CUT
100
AcDbLine
 10
-152.4207234042554
 20
199.8292924814098
 30
0.0
 11
-160.3707234042554
 21
199.8292924814098
 31
0.0
  0
LINE
  5
FB
330
1D
100
AcDbEntity
  8
CUT
100
AcDbLine
 10
-160.3707234042554
 20
199.8292924814098
 30
0.0
 11
-160.3707234042554
 21
188.7392924814098
 31
0.0
  0
LINE
  5
FC
330
1D
100
AcDbEntity
  8
CUT
100
AcDbLine
 10
-160.3707234042554
 20
188.7392924814098
 30
0.0
 11
-157.3707234042554
 21
188.7392924814098
 31
0.0
  0
LINE
  5
FD
330
1D
100
AcDbEntity
  8
CUT
100
AcDbLine
 10
-157.3707234042554
 20
188.7392924814098
 30
0.0
 11
-157.3707234042554
 21
161.9192924814098
 31
0.0
  0
LINE
  5
FE
330
1D
100
AcDbEntity
  8
CUT
100
AcDbLine
 10
-157.3707234042554
 20
161.9192924814098
 30
0.0
 11
-160.3707234042554
 21
161.9192924814098
 31
0.0
  0
LINE
  5
FF
330
1D
100
AcDbEntity
  8
CUT
100
AcDbLine
 10
-160.3707234042554
 20
161.9192924814098
 30
0.0
 11
-160.3707234042554
 21
150.8292924814098
 31
0.0
  0
LINE
  5
169
330
1D
100
AcDbEntity
  8
CUT
100
AcDbLine
 10
56.17691946418574
 20
28.57340705040269
 30
0.0
 11
67.26691946418575
 21
28.57340705040269
 31
0.0
  0
LINE
  5
16A
330
1D
100
AcDbEntity
  8
CUT
100
AcDbLine
 10
67.26691946418575
 20
28.57340705040269
 30
0.0
 11
67.26691946418575
 21
25.57340705040269
 31
0.0
  0
LINE
  5
16B
330
1D
100
AcDbEntity
  8
CUT
100
AcDbLine
 10
67.26691946418575
 20
25.57340705040269
 30
0.0
 11
94.08691946418574
 21
25.57340705040272
 31
0.0
  0
LINE
  5
16C
330
1D
100
AcDbEntity
  8
CUT
100
AcDbLine
 10
94.08691946418574
 20
25.57340705040272
 30
0.0
 11
94.08691946418574
 21
28.57340705040272
 31
0.0
  0
LINE
  5
16D
330
1D
100
AcDbEntity
  8
CUT
100
AcDbLine
 10
94.08691946418574
 20
28.57340705040272
 30
0.0
 11
105.1769194641857
 21
28.57340705040272
 31
0.0
  0
LINE
  5
16E
330
1D
100
AcDbEntity
  8
CUT
100
AcDbLine
 10
105.1769194641857
 20
28.57340705040272
 30
0.0
 11
105.1769194641857
 21
50.34340705040273
 31
0.0
  0
LINE
  5
16F
330
1D
100
AcDbEntity
  8
CUT
100
AcDbLine
 10
105.1769194641857
 20
50.34340705040273
 30
0.0
 11
108.1769194641857
 21
50.34340705040273
 31
0.0
  0
LINE
  5
170
330
1D
100
AcDbEntity
  8
CUT
100
AcDbLine
 10
108.1769194641857
 20
50.34340705040273
 30
0.0
 11
108.1769194641857
 21
77.16340705040272
 31
0.0
  0
LINE
  5
171
330
1D
100
AcDbEntity
  8
CUT
100
AcDbLine
 10
108.1769194641857
 20
77.16340705040272
 30
0.0
 11
105.1769194641857
 21
77.16340705040272
 31
0.0
  0
LINE
  5
172
330
1D
100
AcDbEntity
  8
CUT
100
AcDbLine
 10
105.1769194641857
 20
77.16340705040272
 30
0.0
 11
105.1769194641857
 21
103.9834070504027
 31
0.0
  0
LINE
  5
173
330
1D
100
AcDbEntity
  8
CUT
100
AcDbLine
 10
105.1769194641857
 20
103.9834070504027
 30
0.0
 11
108.1769194641857
 21
103.9834070504027
 31
0.0
  0
LINE
  5
174
330
1D
100
AcDbEntity
  8
CUT
100
AcDbLine
 10
108.1769194641857
 20
103.9834070504027
 30
0.0
 11
108.1769194641857
 21
130.8034070504027
 31
0.0
  0
LINE
  5
175
330
1D
100
AcDbEntity
  8
CUT
100
AcDbLine
 10
108.1769194641857
 20
130.8034070504027
 30
0.0
 11
105.1769194641857
 21
130.8034070504027
 31
0.0
  0
LINE
  5
176
330
1D
100
AcDbEntity
  8
CUT
100
AcDbLine
 10
105.1769194641857
 20
130.8034070504027
 30
0.0
 11
105.1769194641857
 21
152.5734070504027
 31
0.0
  0
LINE
  5
177
330
1D
100
AcDbEntity
  8
CUT
100
AcDbLine
 10
105.1769194641857
 20
152.5734070504027
 30
0.0
 11
94.08691946418567
 21
152.5734070504027
 31
0.0
  0
LINE
  5
178
330
1D
100
AcDbEntity
  8
CUT
100
AcDbLine
 10
94.08691946418567
 20
152.5734070504027
 30
0.0
 11
94.08691946418566
 21
155.5734070504027
 31
0.0
  0
LINE
  5
179
330
1D
100
AcDbEntity
  8
CUT
100
AcDbLine
 10
94.08691946418566
 20
155.5734070504027
 30
0.0
 11
67.26691946418566
 21
155.5734070504027
 31
0.0
  0
LINE
  5
17A
330
1D
100
AcDbEntity
  8
CUT
100
AcDbLine
 10
67.26691946418566
 20
155.5734070504027
 30
0.0
 11
67.26691946418566
 21
152.5734070504027
 31
0.0
  0
LINE
  5
17B
330
1D
100
AcDbEntity
  8
CUT
100
AcDbLine
 10
67.26691946418566
 20
152.5734070504027
 30
0.0
 11
56.17691946418566
 21
152.5734070504027
 31
0.0
  0
LINE
  5
17C
330
1D
100
AcDbEntity
  8
CUT
100
AcDbLine
 10
56.17691946418566
 20
152.5734070504027
 30
0.0
 11
56.17691946418569
 21
130.8034070504027
 31
0.0
  0
LINE
  5
17D
330
1D
100
AcDbEntity
  8
CUT
100
AcDbLine
 10
56.17691946418569
 20
130.8034070504027
 30
0.0
 11
53.17691946418569
 21
130.8034070504027
 31
0.0
  0
LINE
  5
17E
330
1D
100
AcDbEntity
  8
CUT
100
AcDbLine
 10
53.17691946418569
 20
130.8034070504027
 30
0.0
 11
53.17691946418569
 21
103.9834070504027
 31
0.0
  0
LINE
  5
17F
330
1D
100
AcDbEntity
  8
CUT
100
AcDbLine
 10
53.17691946418569
 20
103.9834070504027
 30
0.0
 11
56.17691946418569
 21
103.9834070504027
 31
0.0
  0
LINE
  5
180
330
1D
100
AcDbEntity
  8
CUT
100
AcDbLine
 10
56.17691946418569
 20
103.9834070504027
 30
0.0
 11
56.17691946418572
 21
77.1634070504027
 31
0.0
  0
LINE
  5
181
330
1D
100
AcDbEntity
  8
CUT
100
AcDbLine
 10
56.17691946418572
 20
77.1634070504027
 30
0.0
 11
53.17691946418572
 21
77.1634070504027
 31
0.0
  0
LINE
  5
182
330
1D
100
AcDbEntity
  8
CUT
100
AcDbLine
 10
53.17691946418572
 20
77.1634070504027
 30
0.0
 11
53.17691946418573
 21
50.3434070504027
 31
0.0
  0
LINE
  5
183
330
1D
100
AcDbEntity
  8
CUT
100
AcDbLine
 10
53.17691946418573
 20
50.3434070504027
 30
0.0
 11
56.17691946418573
 21
50.3434070504027
 31
0.0
  0
LINE
  5
184
330
1D
100
AcDbEntity
  8
CUT
100
AcDbLine
 10
56.17691946418573
 20
50.3434070504027
 30
0.0
 11
56.17691946418574
 21
28.57340705040269
 31
0.0
  0
LINE
  5
203
330
1D
100
AcDbEntity
  8
CUT
100
AcDbLine
 10
-315.9558917653536
 20
2.999999999999817
 30
0.0
 11
-281.1858917653536
 21
2.999999999999838
 31
0.0
  0
LINE
  5
204
330
1D
100
AcDbEntity
  8
CUT
100
AcDbLine
 10
-281.1858917653536
 20
2.999999999999838
 30
0.0
 11
-281.1858917653536
 21
5.999999999999838
 31
0.0
  0
LINE
  5
205
330
1D
100
AcDbEntity
  8
CUT
100
AcDbLine
 10
-281.1858917653536
 20
5.999999999999838
 30
0.0
 11
-254.3658917653536
 21
5.999999999999854
 31
0.0
  0
LINE
  5
206
330
1D
100
AcDbEntity
  8
CUT
100
AcDbLine
 10
-254.3658917653536
 20
5.999999999999854
 30
0.0
 11
-254.3658917653536
 21
2.999999999999854
 31
0.0
  0
LINE
  5
207
330
1D
100
AcDbEntity
  8
CUT
100
AcDbLine
 10
-254.3658917653536
 20
2.999999999999854
 30
0.0
 11
-227.5458917653536
 21
2.99999999999987
 31
0.0
  0
LINE
  5
208
330
1D
100
AcDbEntity
  8
CUT
100
AcDbLine
 10
-227.5458917653536
 20
2.99999999999987
 30
0.0
 11
-227.5458917653536
 21
5.99999999999987
 31
0.0
  0
LINE
  5
209
330
1D
100
AcDbEntity
  8
CUT
100
AcDbLine
 10
-227.5458917653536
 20
5.99999999999987
 30
0.0
 11
-200.7258917653536
 21
5.999999999999886
 31
0.0
  0
LINE
  5
20A
330
1D
100
AcDbEntity
  8
CUT
100
AcDbLine
 10
-200.7258917653536
 20
5.999999999999886
 30
0.0
 11
-200.7258917653536
 21
2.999999999999886
 31
0.0
  0
LINE
  5
20B
330
1D
100
AcDbEntity
  8
CUT
100
AcDbLine
 10
-200.7258917653536
 20
2.999999999999886
 30
0.0
 11
-173.9058917653536
 21
2.999999999999903
 31
0.0
  0
LINE
  5
20C
330
1D
100
AcDbEntity
  8
CUT
100
AcDbLine
 10
-173.9058917653536
 20
2.999999999999903
 30
0.0
 11
-165.9558917653536
 21
2.999999999999908
 31
0.0
  0
LINE
  5
20D
330
1D
100
AcDbEntity
  8
CUT
100
AcDbLine
 10
-165.9558917653536
 20
2.999999999999908
 30
0.0
 11
-165.9558917653536
 21
27.7699999999999
 31
0.0
  0
LINE
  5
20E
330
1D
100
AcDbEntity
  8
CUT
100
AcDbLine
 10
-165.9558917653536
 20
27.7699999999999
 30
0.0
 11
-168.9558917653536
 21
27.7699999999999
 31
0.0
  0
LINE
  5
20F
330
1D
100
AcDbEntity
  8
CUT
100
AcDbLine
 10
-168.9558917653536
 20
27.7699999999999
 30
0.0
 11
-168.9558917653536
 21
54.5899999999999
 31
0.0
  0
LINE
  5
210
330
1D
100
AcDbEntity
  8
CUT
100
AcDbLine
 10
-168.9558917653536
 20
54.5899999999999
 30
0.0
 11
-165.9558917653536
 21
54.58999999999991
 31
0.0
  0
LINE
  5
211
330
1D
100
AcDbEntity
  8
CUT
100
AcDbLine
 10
-165.9558917653536
 20
54.58999999999991
 30
0.0
 11
-165.9558917653537
 21
81.4099999999999
 31
0.0
  0
LINE
  5
212
330
1D
100
AcDbEntity
  8
CUT
100
AcDbLine
 10
-165.9558917653537
 20
81.4099999999999
 30
0.0
 11
-168.9558917653537
 21
81.4099999999999
 31
0.0
  0
LINE
  5
213
330
1D
100
AcDbEntity
  8
CUT
100
AcDbLine
 10
-168.9558917653537
 20
81.4099999999999
 30
0.0
 11
-168.9558917653537
 21
108.2299999999999
 31
0.0
  0
LINE
  5
214
330
1D
100
AcDbEntity
  8
CUT
100
AcDbLine
 10
-168.9558917653537
 20
108.2299999999999
 30
0.0
 11
-165.9558917653537
 21
108.2299999999999
 31
0.0
  0
LINE
  5
215
330
1D
100
AcDbEntity
  8
CUT
100
AcDbLine
 10
-165.9558917653537
 20
108.2299999999999
 30
0.0
 11
-165.9558917653537
 21
132.9999999999999
 31
0.0
  0
LINE
  5
216
330
1D
100
AcDbEntity
  8
CUT
100
AcDbLine
 10
-165.9558917653537
 20
132.9999999999999
 30
0.0
 11
-200.7258917653537
 21
132.9999999999999
 31
0.0
  0
LINE
  5
217
330
1D
100
AcDbEntity
  8
CUT
100
AcDbLine
 10
-200.7258917653537
 20
132.9999999999999
 30
0.0
 11
-200.7258917653537
 21
129.9999999999999
 31
0.0
  0
LINE
  5
218
330
1D
100
AcDbEntity
  8
CUT
100
AcDbLine
 10
-200.7258917653537
 20
129.9999999999999
 30
0.0
 11
-227.5458917653537
 21
129.9999999999999
 31
0.0
  0
LINE
  5
219
330
1D
100
AcDbEntity
  8
CUT
100
AcDbLine
 10
-227.5458917653537
 20
129.9999999999999
 30
0.0
 11
-227.5458917653537
 21
132.9999999999999
 31
0.0
  0
LINE
  5
21A
330
1D
100
AcDbEntity
  8
CUT
100
AcDbLine
 10
-227.5458917653537
 20
132.9999999999999
 30
0.0
 11
-254.3658917653537
 21
132.9999999999999
 31
0.0
  0
LINE
  5
21B
330
1D
100
AcDbEntity
  8
CUT
100
AcDbLine
 10
-254.3658917653537
 20
132.9999999999999
 30
0.0
 11
-254.3658917653537
 21
129.9999999999999
 31
0.0
  0
LINE
  5
21C
330
1D
100
AcDbEntity
  8
CUT
100
AcDbLine
 10
-254.3658917653537
 20
129.9999999999999
 30
0.0
 11
-281.1858917653537
 21
129.9999999999998
 31
0.0
  0
LINE
  5
21D
330
1D
100
AcDbEntity
  8
CUT
100
AcDbLine
 10
-281.1858917653537
 20
129.9999999999998
 30
0.0
 11
-281.1858917653537
 21
132.9999999999998
 31
0.0
  0
LINE
  5
21E
330
1D
100
AcDbEntity
  8
CUT
100
AcDbLine
 10
-281.1858917653537
 20
132.9999999999998
 30
0.0
 11
-308.0058917653537
 21
132.9999999999998
 31
0.0
  0
LINE
  5
21F
330
1D
100
AcDbEntity
  8
CUT
100
AcDbLine
 10
-308.0058917653537
 20
132.9999999999998
 30
0.0
 11
-315.9558917653537
 21
132.9999999999998
 31
0.0
  0
LINE
  5
220
330
1D
100
AcDbEntity
  8
CUT
100
AcDbLine
 10
-315.9558917653537
 20
132.9999999999998
 30
0.0
 11
-315.9558917653537
 21
108.2299999999998
 31
0.0
  0
LINE
  5
221
330
1D
100
AcDbEntity
  8
CUT
100
AcDbLine
 10
-315.9558917653537
 20
108.2299999999998
 30
0.0
 11
-312.9558917653537
 21
108.2299999999998
 31
0.0
  0
LINE
  5
222
330
1D
100
AcDbEntity
  8
CUT
100
AcDbLine
 10
-312.9558917653537
 20
108.2299999999998
 30
0.0
 11
-312.9558917653537
 21
81.40999999999981
 31
0.0
  0
LINE
  5
223
330
1D
100
AcDbEntity
  8
CUT
100
AcDbLine
 10
-312.9558917653537
 20
81.40999999999981
 30
0.0
 11
-315.9558917653537
 21
81.40999999999981
 31
0.0
  0
LINE
  5
224
330
1D
100
AcDbEntity
  8
CUT
100
AcDbLine
 10
-315.9558917653537
 20
81.40999999999981
 30
0.0
 11
-315.9558917653537
 21
54.58999999999982
 31
0.0
  0
LINE
  5
225
330
1D
100
AcDbEntity
  8
CUT
100
AcDbLine
 10
-315.9558917653537
 20
54.58999999999982
 30
0.0
 11
-312.9558917653537
 21
54.58999999999982
 31
0.0
  0
LINE
  5
226
330
1D
100
AcDbEntity
  8
CUT
100
AcDbLine
 10
-312.9558917653537
 20
54.58999999999982
 30
0.0
 11
-312.9558917653536
 21
27.76999999999982
 31
0.0
  0
LINE
  5
227
330
1D
100
AcDbEntity
  8
CUT
100
AcDbLine
 10
-312.9558917653536
 20
27.76999999999982
 30
0.0
 11
-315.9558917653536
 21
27.76999999999982
 31
0.0
  0
LINE
  5
228
330
1D
100
AcDbEntity
  8
CUT
100
AcDbLine
 10
-315.9558917653536
 20
27.76999999999982
 30
0.0
 11
-315.9558917653536
 21
2.999999999999817
 31
0.0
  0
LINE
  5
2D1
330
1D
100
AcDbEntity
  8
CUT
100
AcDbLine
 10
-315.9558917653536
 20
150.8292924814097
 30
0.0
 11
-281.1858917653536
 21
150.8292924814097
 31
0.0
  0
LINE
  5
2D2
330
1D
100
AcDbEntity
  8
CUT
100
AcDbLine
 10
-281.1858917653536
 20
150.8292924814097
 30
0.0
 11
-281.1858917653536
 21
147.8292924814097
 31
0.0
  0
LINE
  5
2D3
330
1D
100
AcDbEntity
  8
CUT
100
AcDbLine
 10
-281.1858917653536
 20
147.8292924814097
 30
0.0
 11
-254.3658917653536
 21
147.8292924814097
 31
0.0
  0
LINE
  5
2D4
330
1D
100
AcDbEntity
  8
CUT
100
AcDbLine
 10
-254.3658917653536
 20
147.8292924814097
 30
0.0
 11
-254.3658917653536
 21
150.8292924814097
 31
0.0
  0
LINE
  5
2D5
330
1D
100
AcDbEntity
  8
CUT
100
AcDbLine
 10
-254.3658917653536
 20
150.8292924814097
 30
0.0
 11
-227.5458917653536
 21
150.8292924814097
 31
0.0
  0
LINE
  5
2D6
330
1D
100
AcDbEntity
  8
CUT
100
AcDbLine
 10
-227.5458917653536
 20
150.8292924814097
 30
0.0
 11
-227.5458917653536
 21
147.8292924814097
 31
0.0
  0
LINE
  5
2D7
330
1D
100
AcDbEntity
  8
CUT
100
AcDbLine
 10
-227.5458917653536
 20
147.8292924814097
 30
0.0
 11
-200.7258917653537
 21
147.8292924814098
 31
0.0
  0
LINE
  5
2D8
330
1D
100
AcDbEntity
  8
CUT
100
AcDbLine
 10
-200.7258917653537
 20
147.8292924814098
 30
0.0
 11
-200.7258917653537
 21
150.8292924814098
 31
0.0
  0
LINE
  5
2D9
330
1D
100
AcDbEntity
  8
CUT
100
AcDbLine
 10
-200.7258917653537
 20
150.8292924814098
 30
0.0
 11
-173.9058917653536
 21
150.8292924814098
 31
0.0
  0
LINE
  5
2DA
330
1D
100
AcDbEntity
  8
CUT
100
AcDbLine
 10
-173.9058917653536
 20
150.8292924814098
 30
0.0
 11
-165.9558917653536
 21
150.8292924814098
 31
0.0
  0
LINE
  5
2DB
330
1D
100
AcDbEntity
  8
CUT
100
AcDbLine
 10
-165.9558917653536
 20
150.8292924814098
 30
0.0
 11
-165.9558917653536
 21
161.9192924814098
 31
0.0
  0
LINE
  5
2DC
330
1D
100
AcDbEntity
  8
CUT
100
AcDbLine
 10
-165.9558917653536
 20
161.9192924814098
 30
0.0
 11
-168.9558917653536
 21
161.9192924814098
 31
0.0
  0
LINE
  5
2DD
330
1D
100
AcDbEntity
  8
CUT
100
AcDbLine
 10
-168.9558917653536
 20
161.9192924814098
 30
0.0
 11
-168.9558917653537
 21
188.7392924814098
 31
0.0
  0
LINE
  5
2DE
330
1D
100
AcDbEntity
  8
CUT
100
AcDbLine
 10
-168.9558917653537
 20
188.7392924814098
 30
0.0
 11
-165.9558917653537
 21
188.7392924814098
 31
0.0
  0
LINE
  5
2DF
330
1D
100
AcDbEntity
  8
CUT
100
AcDbLine
 10
-165.9558917653537
 20
188.7392924814098
 30
0.0
 11
-165.9558917653537
 21
199.8292924814098
 31
0.0
  0
LINE
  5
2E0
330
1D
100
AcDbEntity
  8
CUT
100
AcDbLine
 10
-165.9558917653537
 20
199.8292924814098
 30
0.0
 11
-200.7258917653537
 21
199.8292924814098
 31
0.0
  0
LINE
  5
2E1
330
1D
100
AcDbEntity
  8
CUT
100
AcDbLine
 10
-200.7258917653537
 20
199.8292924814098
 30
0.0
 11
-200.7258917653537
 21
202.8292924814098
 31
0.0
  0
LINE
  5
2E2
330
1D
100
AcDbEntity
  8
CUT
100
AcDbLine
 10
-200.7258917653537
 20
202.8292924814098
 30
0.0
 11
-227.5458917653537
 21
202.8292924814097
 31
0.0
  0
LINE
  5
2E3
330
1D
100
AcDbEntity
  8
CUT
100
AcDbLine
 10
-227.5458917653537
 20
202.8292924814097
 30
0.0
 11
-227.5458917653537
 21
199.8292924814097
 31
0.0
  0
LINE
  5
2E4
330
1D
100
AcDbEntity
  8
CUT
100
AcDbLine
 10
-227.5458917653537
 20
199.8292924814097
 30
0.0
 11
-254.3658917653537
 21
199.8292924814097
 31
0.0
  0
LINE
  5
2E5
330
1D
100
AcDbEntity
  8
CUT
100
AcDbLine
 10
-254.3658917653537
 20
199.8292924814097
 30
0.0
 11
-254.3658917653537
 21
202.8292924814097
 31
0.0
  0
LINE
  5
2E6
330
1D
100
AcDbEntity
  8
CUT
100
AcDbLine
 10
-254.3658917653537
 20
202.8292924814097
 30
0.0
 11
-281.1858917653537
 21
202.8292924814097
 31
0.0
  0
LINE
  5
2E7
330
1D
100
AcDbEntity
  8
CUT
100
AcDbLine
 10
-281.1858917653537
 20
202.8292924814097
 30
0.0
 11
-281.1858917653537
 21
199.8292924814097
 31
0.0
  0
LINE
  5
2E8
330
1D
100
AcDbEntity
  8
CUT
100
AcDbLine
 10
-281.1858917653537
 20
199.8292924814097
 30
0.0
 11
-308.0058917653537
 21
199.8292924814097
 31
0.0
  0
LINE
  5
2E9
330
1D
100
AcDbEntity
  8
CUT
100
AcDbLine
 10
-308.0058917653537
 20
199.8292924814097
 30
0.0
 11
-315.9558917653537
 21
199.8292924814097
 31
0.0
  0
LINE
  5
2EA
330
1D
100
AcDbEntity
  8
CUT
100
AcDbLine
 10
-315.9558917653537
 20
199.8292924814097
 30
0.0
 11
-315.9558917653537
 21
188.7392924814097
 31
0.0
  0
LINE
  5
2EB
330
1D
100
AcDbEntity
  8
CUT
100
AcDbLine
 10
-315.9558917653537
 20
188.7392924814097
 30
0.0
 11
-312.9558917653537
 21
188.7392924814097
 31
0.0
  0
LINE
  5
2EC
330
1D
100
AcDbEntity
  8
CUT
100
AcDbLine
 10
-312.9558917653537
 20
188.7392924814097
 30
0.0
 11
-312.9558917653537
 21
161.9192924814097
 31
0.0
  0
LINE
  5
2ED
330
1D
100
AcDbEntity
  8
CUT
100
AcDbLine
 10
-312.9558917653537
 20
161.9192924814097
 30
0.0
 11
-315.9558917653537
 21
161.9192924814097
 31
0.0
  0
LINE
  5
2EE
330
1D
100
AcDbEntity
  8
CUT
100
AcDbLine
 10
-315.9558917653537
 20
161.9192924814097
 30
0.0
 11
-315.9558917653536
 21
150.8292924814097
 31
0.0
  0
LINE
  5
3CA
330
1D
100
AcDbEntity
  8
CUT
100
AcDbLine
 10
-1.823080535814256
 20
28.57340705040266
 30
0.0
 11
9.266919464185747
 21
28.57340705040266
 31
0.0
  0
LINE
  5
3CB
330
1D
100
AcDbEntity
  8
CUT
100
AcDbLine
 10
9.266919464185747
 20
28.57340705040266
 30
0.0
 11
9.266919464185747
 21
25.57340705040266
 31
0.0
  0
LINE
  5
3CC
330
1D
100
AcDbEntity
  8
CUT
100
AcDbLine
 10
9.266919464185747
 20
25.57340705040266
 30
0.0
 11
36.08691946418574
 21
25.57340705040266
 31
0.0
  0
LINE
  5
3CD
330
1D
100
AcDbEntity
  8
CUT
100
AcDbLine
 10
36.08691946418574
 20
25.57340705040266
 30
0.0
 11
36.08691946418574
 21
28.57340705040266
 31
0.0
  0
LINE
  5
3CE
330
1D
100
AcDbEntity
  8
CUT
100
AcDbLine
 10
36.08691946418574
 20
28.57340705040266
 30
0.0
 11
47.17691946418574
 21
28.57340705040269
 31
0.0
  0
LINE
  5
3CF
330
1D
100
AcDbEntity
  8
CUT
100
AcDbLine
 10
47.17691946418574
 20
28.57340705040269
 30
0.0
 11
47.17691946418573
 21
50.3434070504027
 31
0.0
  0
LINE
  5
3D0
330
1D
100
AcDbEntity
  8
CUT
100
AcDbLine
 10
47.17691946418573
 20
50.3434070504027
 30
0.0
 11
50.17691946418573
 21
50.3434070504027
 31
0.0
  0
LINE
  5
3D1
330
1D
100
AcDbEntity
  8
CUT
100
AcDbLine
 10
50.17691946418573
 20
50.3434070504027
 30
0.0
 11
50.17691946418572
 21
77.1634070504027
 31
0.0
  0
LINE
  5
3D2
330
1D
100
AcDbEntity
  8
CUT
100
AcDbLine
 10
50.17691946418572
 20
77.1634070504027
 30
0.0
 11
47.17691946418572
 21
77.1634070504027
 31
0.0
  0
LINE
  5
3D3
330
1D
100
AcDbEntity
  8
CUT
100
AcDbLine
 10
47.17691946418572
 20
77.1634070504027
 30
0.0
 11
47.1769194641857
 21
103.9834070504027
 31
0.0
  0
LINE
  5
3D4
330
1D
100
AcDbEntity
  8
CUT
100
AcDbLine
 10
47.1769194641857
 20
103.9834070504027
 30
0.0
 11
50.17691946418569
 21
103.9834070504027
 31
0.0
  0
LINE
  5
3D5
330
1D
100
AcDbEntity
  8
CUT
100
AcDbLine
 10
50.17691946418569
 20
103.9834070504027
 30
0.0
 11
50.17691946418569
 21
130.8034070504027
 31
0.0
  0
LINE
  5
3D6
330
1D
100
AcDbEntity
  8
CUT
100
AcDbLine
 10
50.17691946418569
 20
130.8034070504027
 30
0.0
 11
47.17691946418567
 21
130.8034070504027
 31
0.0
  0
LINE
  5
3D7
330
1D
100
AcDbEntity
  8
CUT
100
AcDbLine
 10
47.17691946418567
 20
130.8034070504027
 30
0.0
 11
47.17691946418566
 21
152.5734070504027
 31
0.0
  0
LINE
  5
3D8
330
1D
100
AcDbEntity
  8
CUT
100
AcDbLine
 10
47.17691946418566
 20
152.5734070504027
 30
0.0
 11
36.08691946418566
 21
152.5734070504027
 31
0.0
  0
LINE
  5
3D9
330
1D
100
AcDbEntity
  8
CUT
100
AcDbLine
 10
36.08691946418566
 20
152.5734070504027
 30
0.0
 11
36.08691946418566
 21
155.5734070504027
 31
0.0
  0
LINE
  5
3DA
330
1D
100
AcDbEntity
  8
CUT
100
AcDbLine
 10
36.08691946418566
 20
155.5734070504027
 30
0.0
 11
9.266919464185662
 21
155.5734070504027
 31
0.0
  0
LINE
  5
3DB
330
1D
100
AcDbEntity
  8
CUT
100
AcDbLine
 10
9.266919464185662
 20
155.5734070504027
 30
0.0
 11
9.266919464185662
 21
152.5734070504027
 31
0.0
  0
LINE
  5
3DC
330
1D
100
AcDbEntity
  8
CUT
100
AcDbLine
 10
9.266919464185662
 20
152.5734070504027
 30
0.0
 11
-1.823080535814341
 21
152.5734070504027
 31
0.0
  0
LINE
  5
3DD
330
1D
100
AcDbEntity
  8
CUT
100
AcDbLine
 10
-1.823080535814341
 20
152.5734070504027
 30
0.0
 11
-1.823080535814327
 21
130.8034070504027
 31
0.0
  0
LINE
  5
3DE
330
1D
100
AcDbEntity
  8
CUT
100
AcDbLine
 10
-1.823080535814327
 20
130.8034070504027
 30
0.0
 11
-4.823080535814327
 21
130.8034070504027
 31
0.0
  0
LINE
  5
3DF
330
1D
100
AcDbEntity
  8
CUT
100
AcDbLine
 10
-4.823080535814327
 20
130.8034070504027
 30
0.0
 11
-4.823080535814299
 21
103.9834070504027
 31
0.0
  0
LINE
  5
3E0
330
1D
100
AcDbEntity
  8
CUT
100
AcDbLine
 10
-4.823080535814299
 20
103.9834070504027
 30
0.0
 11
-1.823080535814299
 21
103.9834070504027
 31
0.0
  0
LINE
  5
3E1
330
1D
100
AcDbEntity
  8
CUT
100
AcDbLine
 10
-1.823080535814299
 20
103.9834070504027
 30
0.0
 11
-1.823080535814285
 21
77.16340705040267
 31
0.0
  0
LINE
  5
3E2
330
1D
100
AcDbEntity
  8
CUT
100
AcDbLine
 10
-1.823080535814285
 20
77.16340705040267
 30
0.0
 11
-4.823080535814285
 21
77.16340705040267
 31
0.0
  0
LINE
  5
3E3
330
1D
100
AcDbEntity
  8
CUT
100
AcDbLine
 10
-4.823080535814285
 20
77.16340705040267
 30
0.0
 11
-4.82308053581427
 21
50.34340705040267
 31
0.0
  0
LINE
  5
3E4
330
1D
100
AcDbEntity
  8
CUT
100
AcDbLine
 10
-4.82308053581427
 20
50.34340705040267
 30
0.0
 11
-1.82308053581427
 21
50.34340705040267
 31
0.0
  0
LINE
  5
3E5
330
1D
100
AcDbEntity
  8
CUT
100
AcDbLine
 10
-1.82308053581427
 20
50.34340705040267
 30
0.0
 11
-1.823080535814256
 21
28.57340705040266
 31
0.0
  0
LWPOLYLINE
  5
53E
330
1D
100
AcDbEntity
  8
CUT
  6
BYBLOCK
100
AcDbPolyline
 90
        4
 70
     1
 43
0.0
 10
-134.3707234042554
 20
112.9999999999999
 10
-36.37072340425539
 20
112.9999999999999
 10
-36.37072340425539
 20
70.99999999999993
 10
-134.3707234042554
 20
70.99999999999994
  0
CIRCLE
  5
546
330
1D
100
AcDbEntity
  8
CUT
  6
BYBLOCK
100
AcDbCircle
 10
-36.3707234042554
 20
32.99999999999995
 30
0.0
 40
6.5
  0
CIRCLE
  5
547
330
1D
100
AcDbEntity
  8
CUT
  6
BYBLOCK
100
AcDbCircle
 10
-46.3707234042554
 20
47.99999999999996
 30
0.0
 40
6.5
  0
CIRCLE
  5
54A
330
1D
100
AcDbEntity
  8
CUT
  6
BYBLOCK
100
AcDbCircle
 10
-46.37072340425539
 20
17.99999999999993
 30
0.0
 40
6.5
  0
CIRCLE
  5
54B
330
1D
100
AcDbEntity
  8
CUT
  6
BYBLOCK
100
AcDbCircle
 10
-124.3707234042553
 20
48.00000000000002
 30
0.0
 40
6.5
  0
CIRCLE
  5
54C
330
1D
100
AcDbEntity
  8
CUT
  6
BYBLOCK
100
AcDbCircle
 10
-134.3707234042554
 20
33.00000000000001
 30
0.0
 40
6.5
  0
CIRCLE
  5
54D
330
1D
100
AcDbEntity
  8
CUT
  6
BYBLOCK
100
AcDbCircle
 10
-124.3707234042554
 20
17.99999999999998
 30
0.0
 40
6.5
  0
CIRCLE
  5
556
330
1D
100
AcDbEntity
  8
CUT
  6
BYBLOCK
100
AcDbCircle
 10
-131.8707234042554
 20
119.4999999999999
 30
0.0
 40
2.5
  0
CIRCLE
  5
557
330
1D
100
AcDbEntity
  8
CUT
  6
BYBLOCK
100
AcDbCircle
 10
-38.87072340425539
 20
119.4999999999999
 30
0.0
 40
2.5
  0
CIRCLE
  5
558
330
1D
100
AcDbEntity
  8
CUT
  6
BYBLOCK
100
AcDbCircle
 10
-38.87072340425539
 20
64.49999999999994
 30
0.0
 40
2.5
  0
CIRCLE
  5
559
330
1D
100
AcDbEntity
  8
CUT
  6
BYBLOCK
100
AcDbCircle
 10
-131.8707234042554
 20
64.49999999999994
 30
0.0
 40
2.5
  0
MTEXT
  5
55E
102
{ACAD_XDICTIONARY
360
627
102
}
330
1D
100
AcDbEntity
  8
ENGRAVE
  6
BYBLOCK
100
AcDbMText
 10
-118.7352756583522
 20
51.0101308578619
 30
0.0
 40
2.0
 41
12.95925454890474
 71
     1
 72
     5
  1
{\fArial|b0|i0|c0|p0;\W3.86679; }{\fArial|b0|i0|c0|p0;MAIN }{\fArial|b0|i0|c0|p0;\W3.86679; }{\fArial|b0|i0|c0|p0;MENU}
1001
ACAD
1000
ACAD_MTEXT_DEFINED_HEIGHT_BEGIN
1070
    46
1040
5.367333333333333
1000
ACAD_MTEXT_DEFINED_HEIGHT_END
  0
MTEXT
  5
55F
102
{ACAD_XDICTIONARY
360
629
102
}
330
1D
100
AcDbEntity
  8
ENGRAVE
  6
BYBLOCK
100
AcDbMText
 10
-131.6267350219243
 20
34.10785496077496
 30
0.0
 40
2.0
 41
12.95925454890474
 71
     1
 72
     5
  1
{\fArial|b0|i0|c0|p0;\W7.14822; }{\fArial|b0|i0|c0|p0;A}
1001
ACAD
1000
ACAD_MTEXT_DEFINED_HEIGHT_BEGIN
1070
    46
1040
2.0
1000
ACAD_MTEXT_DEFINED_HEIGHT_END
  0
MTEXT
  5
562
102
{ACAD_XDICTIONARY
360
62B
102
}
330
1D
100
AcDbEntity
  8
ENGRAVE
  6
BYBLOCK
100
AcDbMText
 10
-121.6267350219243
 20
19.10785496077493
 30
0.0
 40
2.0
 41
12.95925454890474
 71
     1
 72
     5
  1
{\fArial|b0|i0|c0|p0;\W7.11421; }{\fArial|b0|i0|c0|p0;B}
1001
ACAD
1000
ACAD_MTEXT_DEFINED_HEIGHT_BEGIN
1070
    46
1040
2.0
1000
ACAD_MTEXT_DEFINED_HEIGHT_END
  0
MTEXT
  5
565
102
{ACAD_XDICTIONARY
360
62D
102
}
330
1D
100
AcDbEntity
  8
ENGRAVE
  6
BYBLOCK
100
AcDbMText
 10
-51.37447061356927
 20
34.10785496077496
 30
0.0
 40
2.0
 41
12.95925454890474
 71
     1
 72
     5
  1
{\fArial|b0|i0|c0|p0;\W7.03174; }{\fArial|b0|i0|c0|p0;C}
1001
ACAD
1000
ACAD_MTEXT_DEFINED_HEIGHT_BEGIN
1070
    46
1040
2.034
1000
ACAD_MTEXT_DEFINED_HEIGHT_END
  0
MTEXT
  5
566
102
{ACAD_XDICTIONARY
360
62F
102
}
330
1D
100
AcDbEntity
  8
ENGRAVE
  6
BYBLOCK
100
AcDbMText
 10
-61.82393650725383
 20
19.10785496077493
 30
0.0
 40
2.0
 41
12.95925454890474
 71
     1
 72
     5
  1
{\fArial|b0|i0|c0|p0;\W7.00725; }{\fArial|b0|i0|c0|p0;D}
1001
ACAD
1000
ACAD_MTEXT_DEFINED_HEIGHT_BEGIN
1070
    46
1040
2.0
1000
ACAD_MTEXT_DEFINED_HEIGHT_END
  0
MTEXT
  5
568
102
{ACAD_XDICTIONARY
360
631
102
}
330
1D
100
AcDbEntity
  8
ENGRAVE
  6
BYBLOCK
100
AcDbMText
 10
-65.10818558977854
 20
49.43361970815123
 30
0.0
 40
2.0
 41
12.95925454890474
 71
     1
 72
     5
  1
{\fArial|b0|i0|c0|p0;\W2.40674; }{\fArial|b0|i0|c0|p0;START}
1001
ACAD
1000
ACAD_MTEXT_DEFINED_HEIGHT_BEGIN
1070
    46
1040
2.034
1000
ACAD_MTEXT_DEFINED_HEIGHT_END
  0
LWPOLYLINE
  5
569
330
1D
100
AcDbEntity
  8
CUT
  6
BYBLOCK
100
AcDbPolyline
 90
        4
 70
     1
 43
0.0
 10
-94.87072340425537
 20
167.8292924814098
 10
-94.87072340425537
 20
181.3292924814098
 10
-75.87072340425537
 20
181.3292924814098
 10
-75.87072340425537
 20
167.8292924814098
  0
MTEXT
  5
56C
102
{ACAD_XDICTIONARY
360
633
102
}
330
1D
100
AcDbEntity
  8
ENGRAVE
  6
BYBLOCK
100
AcDbMText
 10
-91.82659798693037
 20
189.2787493380271
 30
0.0
 40
2.0
 41
12.95925454890474
 71
     1
 72
     5
  1
{\fArial|b0|i0|c0|p0;\W1.43925; }{\fArial|b0|i0|c0|p0;POWER}
1001
ACAD
1000
ACAD_MTEXT_DEFINED_HEIGHT_BEGIN
1070
    46
1040
2.034
1000
ACAD_MTEXT_DEFINED_HEIGHT_END
  0
CIRCLE
  5
56F
330
1D
100
AcDbEntity
  8
CUT
  6
BYBLOCK
100
AcDbCircle
 10
-126.1207234042554
 20
175.3292924814098
 30
0.0
 40
3.5
  0
CIRCLE
  5
570
330
1D
100
AcDbEntity
  8
CUT
  6
BYBLOCK
100
AcDbCircle
 10
-44.62072340425537
 20
175.3292924814099
 30
0.0
 40
6.0
  0
MTEXT
  5
571
102
{ACAD_XDICTIONARY
360
635
102
}
330
1D
100
AcDbEntity
  8
ENGRAVE
  6
BYBLOCK
100
AcDbMText
 10
-132.3926314923092
 20
189.2787493380271
 30
0.0
 40
2.0
 41
12.95925454890474
 71
     1
 72
     5
  1
{\fArial|b0|i0|c0|p0;\W0.84230; }{\fArial|b0|i0|c0|p0;VOLUME}
1001
ACAD
1000
ACAD_MTEXT_DEFINED_HEIGHT_BEGIN
1070
    46
1040
2.034
1000
ACAD_MTEXT_DEFINED_HEIGHT_END
  0
MTEXT
  5
574
102
{ACAD_XDICTIONARY
360
637
102
}
330
1D
100
AcDbEntity
  8
ENGRAVE
  6
BYBLOCK
100
AcDbMText
 10
-51.152182312315
 20
189.2787493380271
 30
0.0
 40
2.0
 41
12.95925454890474
 71
     1
 72
     5
  1
{\fArial|b0|i0|c0|p0;\W1.86679; }{\fArial|b0|i0|c0|p0;SOUND}
1001
ACAD
1000
ACAD_MTEXT_DEFINED_HEIGHT_BEGIN
1070
    46
1040
2.034
1000
ACAD_MTEXT_DEFINED_HEIGHT_END
  0
LINE
  5
575
330
1D
100
AcDbEntity
  8
CUT
  6
BYBLOCK
100
AcDbLine
 10
-160.3707234042554
 20
132.9999999999999
 30
0.0
 11
-160.3707234042554
 21
122.9999999999999
 31
0.0
  0
CIRCLE
  5
578
330
1D
100
AcDbEntity
  8
CUT
  6
BYBLOCK
100
AcDbCircle
 10
-152.8707234042554
 20
125.4999999999999
 30
0.0
 40
2.5
  0
CIRCLE
  5
57A
330
1D
100
AcDbEntity
  8
CUT
  6
BYBLOCK
100
AcDbCircle
 10
-17.87072340425544
 20
125.4999999999998
 30
0.0
 40
2.5
  0
CIRCLE
  5
57B
330
1D
100
AcDbEntity
  8
CUT
  6
BYBLOCK
100
AcDbCircle
 10
-152.8707234042554
 20
10.50000000000009
 30
0.0
 40
2.5
  0
CIRCLE
  5
57C
330
1D
100
AcDbEntity
  8
CUT
  6
BYBLOCK
100
AcDbCircle
 10
-17.87072340425544
 20
10.50000000000017
 30
0.0
 40
2.5
  0
CIRCLE
  5
581
330
1D
100
AcDbEntity
  8
CUT
  6
BYBLOCK
100
AcDbCircle
 10
-308.4558917653537
 20
125.4999999999998
 30
0.0
 40
1.75
  0
CIRCLE
  5
582
330
1D
100
AcDbEntity
  8
CUT
  6
BYBLOCK
100
AcDbCircle
 10
-173.4558917653537
 20
125.4999999999997
 30
0.0
 40
1.75
  0
CIRCLE
  5
583
330
1D
100
AcDbEntity
  8
CUT
  6
BYBLOCK
100
AcDbCircle
 10
-173.4558917653537
 20
10.50000000000009
 30
0.0
 40
1.75
  0
CIRCLE
  5
584
330
1D
100
AcDbEntity
  8
CUT
  6
BYBLOCK
100
AcDbCircle
 10
-308.4558917653537
 20
10.5
 30
0.0
 40
1.75
  0
CIRCLE
  5
58E
330
1D
100
AcDbEntity
  8
CUT
  6
BYBLOCK
100
AcDbCircle
 10
-287.2058917653536
 20
119.2499999999999
 30
0.0
 40
2.5
  0
CIRCLE
  5
58F
330
1D
100
AcDbEntity
  8
CUT
  6
BYBLOCK
100
AcDbCircle
 10
-194.7058917653536
 20
119.2499999999999
 30
0.0
 40
2.5
  0
CIRCLE
  5
590
330
1D
100
AcDbEntity
  8
CUT
  6
BYBLOCK
100
AcDbCircle
 10
-194.7058917653536
 20
26.74999999999983
 30
0.0
 40
2.5
  0
CIRCLE
  5
591
330
1D
100
AcDbEntity
  8
CUT
  6
BYBLOCK
100
AcDbCircle
 10
-287.2058917653536
 20
26.74999999999983
 30
0.0
 40
2.5
  0
LWPOLYLINE
  5
597
330
1D
100
AcDbEntity
  8
CUT
  6
BYBLOCK
100
AcDbPolyline
 90
        4
 70
     1
 43
0.0
 10
-212.7058917653537
 20
160.3292924814098
 10
-212.7058917653537
 20
167.8292924814098
 10
-201.7058917653537
 20
167.8292924814098
 10
-201.7058917653537
 20
160.3292924814098
  0
MTEXT
  5
599
102
{ACAD_XDICTIONARY
360
639
102
}
330
1D
100
AcDbEntity
  8
ENGRAVE
  6
BYBLOCK
100
AcDbMText
 10
-213.4777998534075
 20
178.2787493380271
 30
0.0
 40
2.0
 41
12.95925454890474
 71
     1
 72
     5
  1
{\fArial|b0|i0|c0|p0;\W0.66060; }{\fArial|b0|i0|c0|p0;CHARGE}
1001
ACAD
1000
ACAD_MTEXT_DEFINED_HEIGHT_BEGIN
1070
    46
1040
2.034
1000
ACAD_MTEXT_DEFINED_HEIGHT_END
  0
LWPOLYLINE
  5
5A7
330
1D
100
AcDbEntity
  8
0
  6
BYBLOCK
100
AcDbPolyline
 90
        4
 70
     1
 43
0.0
 10
-410.9871245298123
 20
-51.00169406927341
 10
-410.9871245298123
 20
348.9983059307266
 10
189.0128754701877
 20
348.9983059307266
 10
189.0128754701877
 20
-51.00169406927341
  0
LINE
  5
5C5
330
1D
100
AcDbEntity
  8
ENGRAVE
  6
BYBLOCK
100
AcDbLine
 10
-92.30699083438792
 20
29.73406685753313
 30
0.0
 11
-105.3707234042554
 21
33.00000000000001
 31
0.0
  0
LINE
  5
5C6
330
1D
100
AcDbEntity
  8
ENGRAVE
  6
BYBLOCK
100
AcDbLine
 10
-105.3707234042554
 20
33.00000000000001
 30
0.0
 11
-92.30699083438793
 21
36.26593314246686
 31
0.0
  0
LINE
  5
5C7
330
1D
100
AcDbEntity
  8
ENGRAVE
  6
BYBLOCK
100
AcDbLine
 10
-82.10479026178852
 20
26.06373256986745
 30
0.0
 11
-85.3707234042554
 21
12.99999999999999
 31
0.0
  0
LINE
  5
5C8
330
1D
100
AcDbEntity
  8
ENGRAVE
  6
BYBLOCK
100
AcDbLine
 10
-85.3707234042554
 20
12.99999999999999
 30
0.0
 11
-88.63665654672225
 21
26.06373256986744
 31
0.0
  0
LINE
  5
5C9
330
1D
100
AcDbEntity
  8
ENGRAVE
  6
BYBLOCK
100
AcDbLine
 10
-78.43445597412284
 20
36.26593314246685
 30
0.0
 11
-65.37072340425539
 21
32.99999999999998
 31
0.0
  0
LINE
  5
5CA
330
1D
100
AcDbEntity
  8
ENGRAVE
  6
BYBLOCK
100
AcDbLine
 10
-65.37072340425539
 20
32.99999999999998
 30
0.0
 11
-78.43445597412284
 21
29.73406685753312
 31
0.0
  0
LINE
  5
5CB
330
1D
100
AcDbEntity
  8
ENGRAVE
  6
BYBLOCK
100
AcDbLine
 10
-88.63665654672225
 20
39.93626743013252
 30
0.0
 11
-85.37072340425537
 21
52.99999999999999
 31
0.0
  0
LINE
  5
5CC
330
1D
100
AcDbEntity
  8
ENGRAVE
  6
BYBLOCK
100
AcDbLine
 10
-85.37072340425537
 20
52.99999999999999
 30
0.0
 11
-82.10479026178851
 21
39.93626743013252
 31
0.0
  0
LINE
  5
5CE
330
1D
100
AcDbEntity
  8
ENGRAVE
  6
BYBLOCK
100
AcDbLine
 10
-95.9773251220536
 20
43.6066017177982
 30
0.0
 11
-92.30699083438793
 21
36.26593314246686
 31
0.0
  0
LINE
  5
5CF
330
1D
100
AcDbEntity
  8
ENGRAVE
  6
BYBLOCK
100
AcDbLine
 10
-95.9773251220536
 20
43.6066017177982
 30
0.0
 11
-88.63665654672225
 21
39.93626743013252
 31
0.0
  0
LINE
  5
5D1
330
1D
100
AcDbEntity
  8
ENGRAVE
  6
BYBLOCK
100
AcDbLine
 10
-95.9773251220536
 20
22.39339828220177
 30
0.0
 11
-88.63665654672225
 21
26.06373256986745
 31
0.0
  0
LINE
  5
5D2
330
1D
100
AcDbEntity
  8
ENGRAVE
  6
BYBLOCK
100
AcDbLine
 10
-95.9773251220536
 20
22.39339828220177
 30
0.0
 11
-92.30699083438792
 21
29.73406685753313
 31
0.0
  0
LINE
  5
5D4
330
1D
100
AcDbEntity
  8
ENGRAVE
  6
BYBLOCK
100
AcDbLine
 10
-74.76412168645717
 20
22.39339828220177
 30
0.0
 11
-78.43445597412284
 21
29.73406685753312
 31
0.0
  0
LINE
  5
5D5
330
1D
100
AcDbEntity
  8
ENGRAVE
  6
BYBLOCK
100
AcDbLine
 10
-74.76412168645717
 20
22.39339828220177
 30
0.0
 11
-82.10479026178852
 21
26.06373256986745
 31
0.0
  0
LINE
  5
5D7
330
1D
100
AcDbEntity
  8
ENGRAVE
  6
BYBLOCK
100
AcDbLine
 10
-74.76412168645716
 20
43.60660171779819
 30
0.0
 11
-82.10479026178851
 21
39.93626743013252
 31
0.0
  0
LINE
  5
5D8
330
1D
100
AcDbEntity
  8
ENGRAVE
  6
BYBLOCK
100
AcDbLine
 10
-74.76412168645716
 20
43.60660171779819
 30
0.0
 11
-78.43445597412284
 21
36.26593314246685
 31
0.0
  0
MTEXT
  5
5D9
102
{ACAD_XDICTIONARY
360
63B
102
}
330
1D
100
AcDbEntity
  8
ENGRAVE
  6
BYBLOCK
100
AcDbMText
 10
-246.9965900004798
 20
51.01013085786193
 30
0.0
 40
6.0
 41
12.95925454890474
 71
     1
 72
     5
  1
{\fArial|b0|i1|c0|p0;JACK}
1001
ACAD
1000
ACAD_MTEXT_DEFINED_HEIGHT_BEGIN
1070
    46
1040
6.102
1000
ACAD_MTEXT_DEFINED_HEIGHT_END
  0
ENDSEC
  0
SECTION
  2
OBJECTS
  0
DICTIONARY
  5
C
330
0
100
AcDbDictionary
  3
ACAD_DETAILVIEWSTYLE
350
53C
  3
ACAD_GROUP
350
D
  3
ACAD_MLINESTYLE
350
17
  3
ACAD_SCALELIST
350
4EF
  3
ACAD_SECTIONVIEWSTYLE
350
53D
  3
ACDB_RECOMPOSE_DATA
350
63D
  3
ACDBVARIABLEDICTIONARY
350
537
  3
APPDATA
350
536
  3
DWGPROPS
350
626
  0
DICTIONARY
  5
59B
330
2
100
AcDbDictionary
280
     1
  3
ACAD_LAYERSTATES
360
59C
  3
ACLYDICTIONARY
360
5A5
  0
DICTIONARY
  5
627
330
55E
100
AcDbDictionary
280
     1
  3
ACAD_MTEXT_RT
360
628
  0
DICTIONARY
  5
629
330
55F
100
AcDbDictionary
280
     1
  3
ACAD_MTEXT_RT
360
62A
  0
DICTIONARY
  5
62B
330
562
100
AcDbDictionary
280
     1
  3
ACAD_MTEXT_RT
360
62C
  0
DICTIONARY
  5
62D
330
565
100
AcDbDictionary
280
     1
  3
ACAD_MTEXT_RT
360
62E
  0
DICTIONARY
  5
62F
330
566
100
AcDbDictionary
280
     1
  3
ACAD_MTEXT_RT
360
630
  0
DICTIONARY
  5
631
330
568
100
AcDbDictionary
280
     1
  3
ACAD_MTEXT_RT
360
632
  0
DICTIONARY
  5
633
330
56C
100
AcDbDictionary
280
     1
  3
ACAD_MTEXT_RT
360
634
  0
DICTIONARY
  5
635
330
571
100
AcDbDictionary
280
     1
  3
ACAD_MTEXT_RT
360
636
  0
DICTIONARY
  5
637
330
574
100
AcDbDictionary
280
     1
  3
ACAD_MTEXT_RT
360
638
  0
DICTIONARY
  5
639
330
599
100
AcDbDictionary
280
     1
  3
ACAD_MTEXT_RT
360
63A
  0
DICTIONARY
  5
63B
330
5D9
100
AcDbDictionary
280
     1
  3
ACAD_MTEXT_RT
360
63C
  0
DICTIONARY
  5
53C
102
{ACAD_REACTORS
330
C
102
}
330
C
100
AcDbDictionary
  0
DICTIONARY
  5
D
102
{ACAD_REACTORS
330
C
102
}
330
C
100
AcDbDictionary
  0
DICTIONARY
  5
17
102
{ACAD_REACTORS
330
C
102
}
330
C
100
AcDbDictionary
  3
STANDARD
350
18
  0
DICTIONARY
  5
4EF
102
{ACAD_REACTORS
330
C
102
}
330
C
100
AcDbDictionary
  0
DICTIONARY
  5
53D
102
{ACAD_REACTORS
330
C
102
}
330
C
100
AcDbDictionary
  0
XRECORD
  5
63D
102
{ACAD_REACTORS
330
C
102
}
330
C
100
AcDbXrecord
 90
        1
330
565
330
571
330
56C
330
599
330
566
330
562
330
55E
330
55F
330
568
330
574
330
5D9
  0
DICTIONARY
  5
537
102
{ACAD_REACTORS
330
C
102
}
330
C
100
AcDbDictionary
  0
DICTIONARY
  5
536
102
{ACAD_REACTORS
330
C
102
}
330
C
100
AcDbDictionary
  0
XRECORD
  5
626
102
{ACAD_REACTORS
330
C
102
}
330
C
100
AcDbXrecord
  1
DWGPROPS COOKIE
  2

  3

  4

  6

  7

  8
tpgof
  9

300
=
301
=
302
=
303
=
304
=
305
=
306
=
307
=
308
=
309
=
 40
0.0
 41
2459953.769412871
 42
2459983.454061342
  1

 90
        0
  0
DICTIONARY
  5
59C
102
{ACAD_REACTORS
330
59B
102
}
330
59B
100
AcDbDictionary
  0
DICTIONARY
  5
5A5
102
{ACAD_REACTORS
330
59B
102
}
330
59B
100
AcDbDictionary
1001
ACAD
1000
<All
  0
XRECORD
  5
628
102
{ACAD_REACTORS
330
627
102
}
330
627
100
AcDbXrecord
 40
613332.0
  1
{\pxqc;\fArial|b0|i0|c0|p0;MAIN MENU}
  0
XRECORD
  5
62A
102
{ACAD_REACTORS
330
629
102
}
330
629
100
AcDbXrecord
 40
137323.0
  1
{\pxqc;\fArial|b0|i0|c0|p0;A}
  0
XRECORD
  5
62C
102
{ACAD_REACTORS
330
62B
102
}
330
62B
100
AcDbXrecord
 40
137155.0
  1
{\pxqc;\fArial|b0|i0|c0|p0;B}
  0
XRECORD
  5
62E
102
{ACAD_REACTORS
330
62D
102
}
330
62D
100
AcDbXrecord
 40
137389.0
  1
{\pxqc;\fArial|b0|i0|c0|p0;C}
  0
XRECORD
  5
630
102
{ACAD_REACTORS
330
62F
102
}
330
62F
100
AcDbXrecord
 40
137416.0
  1
{\pxqc;\fArial|b0|i0|c0|p0;D}
  0
XRECORD
  5
632
102
{ACAD_REACTORS
330
631
102
}
330
631
100
AcDbXrecord
 40
156933.0
  1
{\pxqc;\fArial|b0|i0|c0|p0;START}
  0
XRECORD
  5
634
102
{ACAD_REACTORS
330
633
102
}
330
633
100
AcDbXrecord
 40
156896.0
  1
{\pxqc;\fArial|b0|i0|c0|p0;POWER}
  0
XRECORD
  5
636
102
{ACAD_REACTORS
330
635
102
}
330
635
100
AcDbXrecord
 40
161287.0
  1
{\pxqc;\fArial|b0|i0|c0|p0;VOLUME}
  0
XRECORD
  5
638
102
{ACAD_REACTORS
330
637
102
}
330
637
100
AcDbXrecord
 40
157009.0
  1
{\pxqc;\fArial|b0|i0|c0|p0;SOUND}
  0
XRECORD
  5
63A
102
{ACAD_REACTORS
330
639
102
}
330
639
100
AcDbXrecord
 40
158728.0
  1
{\pxqc;\fArial|b0|i0|c0|p0;CHARGE}
  0
XRECORD
  5
63C
102
{ACAD_REACTORS
330
63B
102
}
330
63B
100
AcDbXrecord
 40
30454.0
  1
{\pxqc;\fArial|b0|i1|c0|p0;JACK}
  0
MLINESTYLE
  5
18
102
{ACAD_REACTORS
330
17
102
}
330
17
100
AcDbMlineStyle
  2
Standard
 70
     0
  3

 62
   256
 51
90.0
 52
90.0
 71
     2
 49
0.5
 62
   256
  6
BYLAYER
 49
-0.5
 62
   256
  6
BYLAYER
  0
ENDSEC
  0
EOF
